# xmcd
#
# Track frame offsets:
#	150
#	26367
#	49504
#	67883
#	85530
#	107057
#	125854
#	149986
#	170439
#	188755
#	205013
#
# Disc length: 3143 seconds
#
# Revision: 2
# Processed by: cddbd v1.5.2PL0 Copyright (c) Steve Scherf et al.
# Submitted via: audiograbber 1.83.01
#
DISCID=950c450b
DTITLE=Michel Jonasz - Live Au Casino De Paris - CD1
DYEAR=2009
DGENRE=Jazz
TTITLE0=Les Traces Derrière Nous (Live)
TTITLE1=Le Lafontaine (Live)
TTITLE2=Où Vont Les Rêves (Live)
TTITLE3=La Famille (Live)
TTITLE4=La Terre Et Le Père (Live)
TTITLE5=Vieux Style (Live)
TTITLE6=Les Vacances Au Bord De La Mer (Live)
TTITLE7=Le Boléro (Live)
TTITLE8=Les Wagonnets (Live)
TTITLE9=Y'a Toujours Quelqu'un Qui Pleure (Live)
TTITLE10=Mélancolie (Live)
EXTD=YEAR: 2009
EXTT0=
EXTT1=
EXTT2=
EXTT3=
EXTT4=
EXTT5=
EXTT6=
EXTT7=
EXTT8=
EXTT9=
EXTT10=
PLAYORDER=
